solid @Transparent
   facet normal 0.000000E+000 0.000000E+000 1.000000E+000
      outer loop
         vertex 1.500000E+000 0.000000E+000 2.000000E+001
         vertex 1.448889E+000 3.882286E-001 2.000000E+001
         vertex 0.000000E+000 0.000000E+000 2.000000E+001
      endloop
   endfacet
   facet normal 0.000000E+000 0.000000E+000 1.000000E+000
      outer loop
         vertex 1.448889E+000 3.882286E-001 2.000000E+001
         vertex 1.299038E+000 7.500000E-001 2.000000E+001
         vertex 0.000000E+000 0.000000E+000 2.000000E+001
      endloop
   endfacet
   facet normal 0.000000E+000 0.000000E+000 1.000000E+000
      outer loop
         vertex 1.299038E+000 7.500000E-001 2.000000E+001
         vertex 1.060660E+000 1.060660E+000 2.000000E+001
         vertex 0.000000E+000 0.000000E+000 2.000000E+001
      endloop
   endfacet
   facet normal 0.000000E+000 0.000000E+000 1.000000E+000
      outer loop
         vertex 1.060660E+000 1.060660E+000 2.000000E+001
         vertex 7.500000E-001 1.299038E+000 2.000000E+001
         vertex 0.000000E+000 0.000000E+000 2.000000E+001
      endloop
   endfacet
   facet normal 0.000000E+000 0.000000E+000 1.000000E+000
      outer loop
         vertex 7.500000E-001 1.299038E+000 2.000000E+001
         vertex 3.882286E-001 1.448889E+000 2.000000E+001
         vertex 0.000000E+000 0.000000E+000 2.000000E+001
      endloop
   endfacet
   facet normal 0.000000E+000 0.000000E+000 1.000000E+000
      outer loop
         vertex 3.882286E-001 1.448889E+000 2.000000E+001
         vertex 9.184548E-017 1.500000E+000 2.000000E+001
         vertex 0.000000E+000 0.000000E+000 2.000000E+001
      endloop
   endfacet
   facet normal 0.000000E+000 0.000000E+000 1.000000E+000
      outer loop
         vertex 9.184548E-017 1.500000E+000 2.000000E+001
         vertex -3.882286E-001 1.448889E+000 2.000000E+001
         vertex 0.000000E+000 0.000000E+000 2.000000E+001
      endloop
   endfacet
   facet normal 0.000000E+000 0.000000E+000 1.000000E+000
      outer loop
         vertex -3.882286E-001 1.448889E+000 2.000000E+001
         vertex -7.500000E-001 1.299038E+000 2.000000E+001
         vertex 0.000000E+000 0.000000E+000 2.000000E+001
      endloop
   endfacet
   facet normal 0.000000E+000 0.000000E+000 1.000000E+000
      outer loop
         vertex -7.500000E-001 1.299038E+000 2.000000E+001
         vertex -1.060660E+000 1.060660E+000 2.000000E+001
         vertex 0.000000E+000 0.000000E+000 2.000000E+001
      endloop
   endfacet
   facet normal 0.000000E+000 0.000000E+000 1.000000E+000
      outer loop
         vertex -1.060660E+000 1.060660E+000 2.000000E+001
         vertex -1.299038E+000 7.500000E-001 2.000000E+001
         vertex 0.000000E+000 0.000000E+000 2.000000E+001
      endloop
   endfacet
   facet normal 0.000000E+000 0.000000E+000 1.000000E+000
      outer loop
         vertex -1.299038E+000 7.500000E-001 2.000000E+001
         vertex -1.448889E+000 3.882286E-001 2.000000E+001
         vertex 0.000000E+000 0.000000E+000 2.000000E+001
      endloop
   endfacet
   facet normal 0.000000E+000 0.000000E+000 1.000000E+000
      outer loop
         vertex -1.448889E+000 3.882286E-001 2.000000E+001
         vertex -1.500000E+000 1.836910E-016 2.000000E+001
         vertex 0.000000E+000 0.000000E+000 2.000000E+001
      endloop
   endfacet
   facet normal 0.000000E+000 0.000000E+000 1.000000E+000
      outer loop
         vertex -1.500000E+000 1.836910E-016 2.000000E+001
         vertex -1.448889E+000 -3.882286E-001 2.000000E+001
         vertex 0.000000E+000 0.000000E+000 2.000000E+001
      endloop
   endfacet
   facet normal 0.000000E+000 0.000000E+000 1.000000E+000
      outer loop
         vertex -1.448889E+000 -3.882286E-001 2.000000E+001
         vertex -1.299038E+000 -7.500000E-001 2.000000E+001
         vertex 0.000000E+000 0.000000E+000 2.000000E+001
      endloop
   endfacet
   facet normal 0.000000E+000 0.000000E+000 1.000000E+000
      outer loop
         vertex -1.299038E+000 -7.500000E-001 2.000000E+001
         vertex -1.060660E+000 -1.060660E+000 2.000000E+001
         vertex 0.000000E+000 0.000000E+000 2.000000E+001
      endloop
   endfacet
   facet normal 0.000000E+000 0.000000E+000 1.000000E+000
      outer loop
         vertex -1.060660E+000 -1.060660E+000 2.000000E+001
         vertex -7.500000E-001 -1.299038E+000 2.000000E+001
         vertex 0.000000E+000 0.000000E+000 2.000000E+001
      endloop
   endfacet
   facet normal 0.000000E+000 0.000000E+000 1.000000E+000
      outer loop
         vertex -7.500000E-001 -1.299038E+000 2.000000E+001
         vertex -3.882286E-001 -1.448889E+000 2.000000E+001
         vertex 0.000000E+000 0.000000E+000 2.000000E+001
      endloop
   endfacet
   facet normal 0.000000E+000 0.000000E+000 1.000000E+000
      outer loop
         vertex -3.882286E-001 -1.448889E+000 2.000000E+001
         vertex -2.755364E-016 -1.500000E+000 2.000000E+001
         vertex 0.000000E+000 0.000000E+000 2.000000E+001
      endloop
   endfacet
   facet normal 0.000000E+000 0.000000E+000 1.000000E+000
      outer loop
         vertex -2.755364E-016 -1.500000E+000 2.000000E+001
         vertex 3.882286E-001 -1.448889E+000 2.000000E+001
         vertex 0.000000E+000 0.000000E+000 2.000000E+001
      endloop
   endfacet
   facet normal 0.000000E+000 0.000000E+000 1.000000E+000
      outer loop
         vertex 3.882286E-001 -1.448889E+000 2.000000E+001
         vertex 7.500000E-001 -1.299038E+000 2.000000E+001
         vertex 0.000000E+000 0.000000E+000 2.000000E+001
      endloop
   endfacet
   facet normal 0.000000E+000 0.000000E+000 1.000000E+000
      outer loop
         vertex 7.500000E-001 -1.299038E+000 2.000000E+001
         vertex 1.060660E+000 -1.060660E+000 2.000000E+001
         vertex 0.000000E+000 0.000000E+000 2.000000E+001
      endloop
   endfacet
   facet normal 0.000000E+000 0.000000E+000 1.000000E+000
      outer loop
         vertex 1.060660E+000 -1.060660E+000 2.000000E+001
         vertex 1.299038E+000 -7.500000E-001 2.000000E+001
         vertex 0.000000E+000 0.000000E+000 2.000000E+001
      endloop
   endfacet
   facet normal 0.000000E+000 0.000000E+000 1.000000E+000
      outer loop
         vertex 1.299038E+000 -7.500000E-001 2.000000E+001
         vertex 1.448889E+000 -3.882286E-001 2.000000E+001
         vertex 0.000000E+000 0.000000E+000 2.000000E+001
      endloop
   endfacet
   facet normal 0.000000E+000 0.000000E+000 1.000000E+000
      outer loop
         vertex 1.448889E+000 -3.882286E-001 2.000000E+001
         vertex 1.500000E+000 -3.673819E-016 2.000000E+001
         vertex 0.000000E+000 0.000000E+000 2.000000E+001
      endloop
   endfacet
   facet normal 0.000000E+000 0.000000E+000 -1.000000E+000
      outer loop
         vertex 1.448889E+000 3.882286E-001 0.000000E+000
         vertex 1.500000E+000 0.000000E+000 0.000000E+000
         vertex 0.000000E+000 0.000000E+000 0.000000E+000
      endloop
   endfacet
   facet normal 0.000000E+000 0.000000E+000 -1.000000E+000
      outer loop
         vertex 1.299038E+000 7.500000E-001 0.000000E+000
         vertex 1.448889E+000 3.882286E-001 0.000000E+000
         vertex 0.000000E+000 0.000000E+000 0.000000E+000
      endloop
   endfacet
   facet normal 0.000000E+000 0.000000E+000 -1.000000E+000
      outer loop
         vertex 1.060660E+000 1.060660E+000 0.000000E+000
         vertex 1.299038E+000 7.500000E-001 0.000000E+000
         vertex 0.000000E+000 0.000000E+000 0.000000E+000
      endloop
   endfacet
   facet normal 0.000000E+000 0.000000E+000 -1.000000E+000
      outer loop
         vertex 7.500000E-001 1.299038E+000 0.000000E+000
         vertex 1.060660E+000 1.060660E+000 0.000000E+000
         vertex 0.000000E+000 0.000000E+000 0.000000E+000
      endloop
   endfacet
   facet normal 0.000000E+000 0.000000E+000 -1.000000E+000
      outer loop
         vertex 3.882286E-001 1.448889E+000 0.000000E+000
         vertex 7.500000E-001 1.299038E+000 0.000000E+000
         vertex 0.000000E+000 0.000000E+000 0.000000E+000
      endloop
   endfacet
   facet normal 0.000000E+000 0.000000E+000 -1.000000E+000
      outer loop
         vertex 9.184548E-017 1.500000E+000 0.000000E+000
         vertex 3.882286E-001 1.448889E+000 0.000000E+000
         vertex 0.000000E+000 0.000000E+000 0.000000E+000
      endloop
   endfacet
   facet normal 0.000000E+000 0.000000E+000 -1.000000E+000
      outer loop
         vertex -3.882286E-001 1.448889E+000 0.000000E+000
         vertex 9.184548E-017 1.500000E+000 0.000000E+000
         vertex 0.000000E+000 0.000000E+000 0.000000E+000
      endloop
   endfacet
   facet normal 0.000000E+000 0.000000E+000 -1.000000E+000
      outer loop
         vertex -7.500000E-001 1.299038E+000 0.000000E+000
         vertex -3.882286E-001 1.448889E+000 0.000000E+000
         vertex 0.000000E+000 0.000000E+000 0.000000E+000
      endloop
   endfacet
   facet normal 0.000000E+000 0.000000E+000 -1.000000E+000
      outer loop
         vertex -1.060660E+000 1.060660E+000 0.000000E+000
         vertex -7.500000E-001 1.299038E+000 0.000000E+000
         vertex 0.000000E+000 0.000000E+000 0.000000E+000
      endloop
   endfacet
   facet normal 0.000000E+000 0.000000E+000 -1.000000E+000
      outer loop
         vertex -1.299038E+000 7.500000E-001 0.000000E+000
         vertex -1.060660E+000 1.060660E+000 0.000000E+000
         vertex 0.000000E+000 0.000000E+000 0.000000E+000
      endloop
   endfacet
   facet normal 0.000000E+000 0.000000E+000 -1.000000E+000
      outer loop
         vertex -1.448889E+000 3.882286E-001 0.000000E+000
         vertex -1.299038E+000 7.500000E-001 0.000000E+000
         vertex 0.000000E+000 0.000000E+000 0.000000E+000
      endloop
   endfacet
   facet normal 0.000000E+000 0.000000E+000 -1.000000E+000
      outer loop
         vertex -1.500000E+000 1.836910E-016 0.000000E+000
         vertex -1.448889E+000 3.882286E-001 0.000000E+000
         vertex 0.000000E+000 0.000000E+000 0.000000E+000
      endloop
   endfacet
   facet normal 0.000000E+000 0.000000E+000 -1.000000E+000
      outer loop
         vertex -1.448889E+000 -3.882286E-001 0.000000E+000
         vertex -1.500000E+000 1.836910E-016 0.000000E+000
         vertex 0.000000E+000 0.000000E+000 0.000000E+000
      endloop
   endfacet
   facet normal 0.000000E+000 0.000000E+000 -1.000000E+000
      outer loop
         vertex -1.299038E+000 -7.500000E-001 0.000000E+000
         vertex -1.448889E+000 -3.882286E-001 0.000000E+000
         vertex 0.000000E+000 0.000000E+000 0.000000E+000
      endloop
   endfacet
   facet normal 0.000000E+000 0.000000E+000 -1.000000E+000
      outer loop
         vertex -1.060660E+000 -1.060660E+000 0.000000E+000
         vertex -1.299038E+000 -7.500000E-001 0.000000E+000
         vertex 0.000000E+000 0.000000E+000 0.000000E+000
      endloop
   endfacet
   facet normal 0.000000E+000 0.000000E+000 -1.000000E+000
      outer loop
         vertex -7.500000E-001 -1.299038E+000 0.000000E+000
         vertex -1.060660E+000 -1.060660E+000 0.000000E+000
         vertex 0.000000E+000 0.000000E+000 0.000000E+000
      endloop
   endfacet
   facet normal 0.000000E+000 0.000000E+000 -1.000000E+000
      outer loop
         vertex -3.882286E-001 -1.448889E+000 0.000000E+000
         vertex -7.500000E-001 -1.299038E+000 0.000000E+000
         vertex 0.000000E+000 0.000000E+000 0.000000E+000
      endloop
   endfacet
   facet normal 0.000000E+000 0.000000E+000 -1.000000E+000
      outer loop
         vertex -2.755364E-016 -1.500000E+000 0.000000E+000
         vertex -3.882286E-001 -1.448889E+000 0.000000E+000
         vertex 0.000000E+000 0.000000E+000 0.000000E+000
      endloop
   endfacet
   facet normal 0.000000E+000 0.000000E+000 -1.000000E+000
      outer loop
         vertex 3.882286E-001 -1.448889E+000 0.000000E+000
         vertex -2.755364E-016 -1.500000E+000 0.000000E+000
         vertex 0.000000E+000 0.000000E+000 0.000000E+000
      endloop
   endfacet
   facet normal 0.000000E+000 0.000000E+000 -1.000000E+000
      outer loop
         vertex 7.500000E-001 -1.299038E+000 0.000000E+000
         vertex 3.882286E-001 -1.448889E+000 0.000000E+000
         vertex 0.000000E+000 0.000000E+000 0.000000E+000
      endloop
   endfacet
   facet normal 0.000000E+000 0.000000E+000 -1.000000E+000
      outer loop
         vertex 1.060660E+000 -1.060660E+000 0.000000E+000
         vertex 7.500000E-001 -1.299038E+000 0.000000E+000
         vertex 0.000000E+000 0.000000E+000 0.000000E+000
      endloop
   endfacet
   facet normal 0.000000E+000 0.000000E+000 -1.000000E+000
      outer loop
         vertex 1.299038E+000 -7.500000E-001 0.000000E+000
         vertex 1.060660E+000 -1.060660E+000 0.000000E+000
         vertex 0.000000E+000 0.000000E+000 0.000000E+000
      endloop
   endfacet
   facet normal 0.000000E+000 0.000000E+000 -1.000000E+000
      outer loop
         vertex 1.448889E+000 -3.882286E-001 0.000000E+000
         vertex 1.299038E+000 -7.500000E-001 0.000000E+000
         vertex 0.000000E+000 0.000000E+000 0.000000E+000
      endloop
   endfacet
   facet normal 0.000000E+000 0.000000E+000 -1.000000E+000
      outer loop
         vertex 1.500000E+000 -3.673819E-016 0.000000E+000
         vertex 1.448889E+000 -3.882286E-001 0.000000E+000
         vertex 0.000000E+000 0.000000E+000 0.000000E+000
      endloop
   endfacet
   facet normal 9.914449E-001 1.305262E-001 0.000000E+000
      outer loop
         vertex 1.448889E+000 3.882286E-001 2.000000E+001
         vertex 1.500000E+000 0.000000E+000 2.000000E+001
         vertex 1.500000E+000 0.000000E+000 0.000000E+000
      endloop
   endfacet
   facet normal 9.914449E-001 1.305262E-001 0.000000E+000
      outer loop
         vertex 1.500000E+000 0.000000E+000 0.000000E+000
         vertex 1.448889E+000 3.882286E-001 0.000000E+000
         vertex 1.448889E+000 3.882286E-001 2.000000E+001
      endloop
   endfacet
   facet normal 9.238795E-001 3.826834E-001 0.000000E+000
      outer loop
         vertex 1.299038E+000 7.500000E-001 2.000000E+001
         vertex 1.448889E+000 3.882286E-001 2.000000E+001
         vertex 1.448889E+000 3.882286E-001 0.000000E+000
      endloop
   endfacet
   facet normal 9.238795E-001 3.826834E-001 0.000000E+000
      outer loop
         vertex 1.448889E+000 3.882286E-001 0.000000E+000
         vertex 1.299038E+000 7.500000E-001 0.000000E+000
         vertex 1.299038E+000 7.500000E-001 2.000000E+001
      endloop
   endfacet
   facet normal 7.933533E-001 6.087614E-001 0.000000E+000
      outer loop
         vertex 1.060660E+000 1.060660E+000 2.000000E+001
         vertex 1.299038E+000 7.500000E-001 2.000000E+001
         vertex 1.299038E+000 7.500000E-001 0.000000E+000
      endloop
   endfacet
   facet normal 7.933533E-001 6.087614E-001 0.000000E+000
      outer loop
         vertex 1.299038E+000 7.500000E-001 0.000000E+000
         vertex 1.060660E+000 1.060660E+000 0.000000E+000
         vertex 1.060660E+000 1.060660E+000 2.000000E+001
      endloop
   endfacet
   facet normal 6.087614E-001 7.933533E-001 0.000000E+000
      outer loop
         vertex 7.500000E-001 1.299038E+000 2.000000E+001
         vertex 1.060660E+000 1.060660E+000 2.000000E+001
         vertex 1.060660E+000 1.060660E+000 0.000000E+000
      endloop
   endfacet
   facet normal 6.087614E-001 7.933533E-001 0.000000E+000
      outer loop
         vertex 1.060660E+000 1.060660E+000 0.000000E+000
         vertex 7.500000E-001 1.299038E+000 0.000000E+000
         vertex 7.500000E-001 1.299038E+000 2.000000E+001
      endloop
   endfacet
   facet normal 3.826834E-001 9.238795E-001 0.000000E+000
      outer loop
         vertex 3.882286E-001 1.448889E+000 2.000000E+001
         vertex 7.500000E-001 1.299038E+000 2.000000E+001
         vertex 7.500000E-001 1.299038E+000 0.000000E+000
      endloop
   endfacet
   facet normal 3.826834E-001 9.238795E-001 0.000000E+000
      outer loop
         vertex 7.500000E-001 1.299038E+000 0.000000E+000
         vertex 3.882286E-001 1.448889E+000 0.000000E+000
         vertex 3.882286E-001 1.448889E+000 2.000000E+001
      endloop
   endfacet
   facet normal 1.305262E-001 9.914449E-001 0.000000E+000
      outer loop
         vertex 9.184548E-017 1.500000E+000 2.000000E+001
         vertex 3.882286E-001 1.448889E+000 2.000000E+001
         vertex 3.882286E-001 1.448889E+000 0.000000E+000
      endloop
   endfacet
   facet normal 1.305262E-001 9.914449E-001 0.000000E+000
      outer loop
         vertex 3.882286E-001 1.448889E+000 0.000000E+000
         vertex 9.184548E-017 1.500000E+000 0.000000E+000
         vertex 9.184548E-017 1.500000E+000 2.000000E+001
      endloop
   endfacet
   facet normal -1.305262E-001 9.914449E-001 0.000000E+000
      outer loop
         vertex -3.882286E-001 1.448889E+000 2.000000E+001
         vertex 9.184548E-017 1.500000E+000 2.000000E+001
         vertex 9.184548E-017 1.500000E+000 0.000000E+000
      endloop
   endfacet
   facet normal -1.305262E-001 9.914449E-001 0.000000E+000
      outer loop
         vertex 9.184548E-017 1.500000E+000 0.000000E+000
         vertex -3.882286E-001 1.448889E+000 0.000000E+000
         vertex -3.882286E-001 1.448889E+000 2.000000E+001
      endloop
   endfacet
   facet normal -3.826834E-001 9.238795E-001 0.000000E+000
      outer loop
         vertex -7.500000E-001 1.299038E+000 2.000000E+001
         vertex -3.882286E-001 1.448889E+000 2.000000E+001
         vertex -3.882286E-001 1.448889E+000 0.000000E+000
      endloop
   endfacet
   facet normal -3.826834E-001 9.238795E-001 0.000000E+000
      outer loop
         vertex -3.882286E-001 1.448889E+000 0.000000E+000
         vertex -7.500000E-001 1.299038E+000 0.000000E+000
         vertex -7.500000E-001 1.299038E+000 2.000000E+001
      endloop
   endfacet
   facet normal -6.087614E-001 7.933533E-001 0.000000E+000
      outer loop
         vertex -1.060660E+000 1.060660E+000 2.000000E+001
         vertex -7.500000E-001 1.299038E+000 2.000000E+001
         vertex -7.500000E-001 1.299038E+000 0.000000E+000
      endloop
   endfacet
   facet normal -6.087614E-001 7.933533E-001 0.000000E+000
      outer loop
         vertex -7.500000E-001 1.299038E+000 0.000000E+000
         vertex -1.060660E+000 1.060660E+000 0.000000E+000
         vertex -1.060660E+000 1.060660E+000 2.000000E+001
      endloop
   endfacet
   facet normal -7.933533E-001 6.087614E-001 0.000000E+000
      outer loop
         vertex -1.299038E+000 7.500000E-001 2.000000E+001
         vertex -1.060660E+000 1.060660E+000 2.000000E+001
         vertex -1.060660E+000 1.060660E+000 0.000000E+000
      endloop
   endfacet
   facet normal -7.933533E-001 6.087614E-001 0.000000E+000
      outer loop
         vertex -1.060660E+000 1.060660E+000 0.000000E+000
         vertex -1.299038E+000 7.500000E-001 0.000000E+000
         vertex -1.299038E+000 7.500000E-001 2.000000E+001
      endloop
   endfacet
   facet normal -9.238795E-001 3.826834E-001 0.000000E+000
      outer loop
         vertex -1.448889E+000 3.882286E-001 2.000000E+001
         vertex -1.299038E+000 7.500000E-001 2.000000E+001
         vertex -1.299038E+000 7.500000E-001 0.000000E+000
      endloop
   endfacet
   facet normal -9.238795E-001 3.826834E-001 0.000000E+000
      outer loop
         vertex -1.299038E+000 7.500000E-001 0.000000E+000
         vertex -1.448889E+000 3.882286E-001 0.000000E+000
         vertex -1.448889E+000 3.882286E-001 2.000000E+001
      endloop
   endfacet
   facet normal -9.914449E-001 1.305262E-001 0.000000E+000
      outer loop
         vertex -1.500000E+000 1.836910E-016 2.000000E+001
         vertex -1.448889E+000 3.882286E-001 2.000000E+001
         vertex -1.448889E+000 3.882286E-001 0.000000E+000
      endloop
   endfacet
   facet normal -9.914449E-001 1.305262E-001 0.000000E+000
      outer loop
         vertex -1.448889E+000 3.882286E-001 0.000000E+000
         vertex -1.500000E+000 1.836910E-016 0.000000E+000
         vertex -1.500000E+000 1.836910E-016 2.000000E+001
      endloop
   endfacet
   facet normal -9.914449E-001 -1.305262E-001 0.000000E+000
      outer loop
         vertex -1.448889E+000 -3.882286E-001 2.000000E+001
         vertex -1.500000E+000 1.836910E-016 2.000000E+001
         vertex -1.500000E+000 1.836910E-016 0.000000E+000
      endloop
   endfacet
   facet normal -9.914449E-001 -1.305262E-001 0.000000E+000
      outer loop
         vertex -1.500000E+000 1.836910E-016 0.000000E+000
         vertex -1.448889E+000 -3.882286E-001 0.000000E+000
         vertex -1.448889E+000 -3.882286E-001 2.000000E+001
      endloop
   endfacet
   facet normal -9.238795E-001 -3.826834E-001 0.000000E+000
      outer loop
         vertex -1.299038E+000 -7.500000E-001 2.000000E+001
         vertex -1.448889E+000 -3.882286E-001 2.000000E+001
         vertex -1.448889E+000 -3.882286E-001 0.000000E+000
      endloop
   endfacet
   facet normal -9.238795E-001 -3.826834E-001 0.000000E+000
      outer loop
         vertex -1.448889E+000 -3.882286E-001 0.000000E+000
         vertex -1.299038E+000 -7.500000E-001 0.000000E+000
         vertex -1.299038E+000 -7.500000E-001 2.000000E+001
      endloop
   endfacet
   facet normal -7.933533E-001 -6.087614E-001 0.000000E+000
      outer loop
         vertex -1.060660E+000 -1.060660E+000 2.000000E+001
         vertex -1.299038E+000 -7.500000E-001 2.000000E+001
         vertex -1.299038E+000 -7.500000E-001 0.000000E+000
      endloop
   endfacet
   facet normal -7.933533E-001 -6.087614E-001 0.000000E+000
      outer loop
         vertex -1.299038E+000 -7.500000E-001 0.000000E+000
         vertex -1.060660E+000 -1.060660E+000 0.000000E+000
         vertex -1.060660E+000 -1.060660E+000 2.000000E+001
      endloop
   endfacet
   facet normal -6.087614E-001 -7.933533E-001 0.000000E+000
      outer loop
         vertex -7.500000E-001 -1.299038E+000 2.000000E+001
         vertex -1.060660E+000 -1.060660E+000 2.000000E+001
         vertex -1.060660E+000 -1.060660E+000 0.000000E+000
      endloop
   endfacet
   facet normal -6.087614E-001 -7.933533E-001 0.000000E+000
      outer loop
         vertex -1.060660E+000 -1.060660E+000 0.000000E+000
         vertex -7.500000E-001 -1.299038E+000 0.000000E+000
         vertex -7.500000E-001 -1.299038E+000 2.000000E+001
      endloop
   endfacet
   facet normal -3.826834E-001 -9.238795E-001 0.000000E+000
      outer loop
         vertex -3.882286E-001 -1.448889E+000 2.000000E+001
         vertex -7.500000E-001 -1.299038E+000 2.000000E+001
         vertex -7.500000E-001 -1.299038E+000 0.000000E+000
      endloop
   endfacet
   facet normal -3.826834E-001 -9.238795E-001 0.000000E+000
      outer loop
         vertex -7.500000E-001 -1.299038E+000 0.000000E+000
         vertex -3.882286E-001 -1.448889E+000 0.000000E+000
         vertex -3.882286E-001 -1.448889E+000 2.000000E+001
      endloop
   endfacet
   facet normal -1.305262E-001 -9.914449E-001 0.000000E+000
      outer loop
         vertex -2.755364E-016 -1.500000E+000 2.000000E+001
         vertex -3.882286E-001 -1.448889E+000 2.000000E+001
         vertex -3.882286E-001 -1.448889E+000 0.000000E+000
      endloop
   endfacet
   facet normal -1.305262E-001 -9.914449E-001 0.000000E+000
      outer loop
         vertex -3.882286E-001 -1.448889E+000 0.000000E+000
         vertex -2.755364E-016 -1.500000E+000 0.000000E+000
         vertex -2.755364E-016 -1.500000E+000 2.000000E+001
      endloop
   endfacet
   facet normal 1.305262E-001 -9.914449E-001 0.000000E+000
      outer loop
         vertex 3.882286E-001 -1.448889E+000 2.000000E+001
         vertex -2.755364E-016 -1.500000E+000 2.000000E+001
         vertex -2.755364E-016 -1.500000E+000 0.000000E+000
      endloop
   endfacet
   facet normal 1.305262E-001 -9.914449E-001 0.000000E+000
      outer loop
         vertex -2.755364E-016 -1.500000E+000 0.000000E+000
         vertex 3.882286E-001 -1.448889E+000 0.000000E+000
         vertex 3.882286E-001 -1.448889E+000 2.000000E+001
      endloop
   endfacet
   facet normal 3.826834E-001 -9.238795E-001 0.000000E+000
      outer loop
         vertex 7.500000E-001 -1.299038E+000 2.000000E+001
         vertex 3.882286E-001 -1.448889E+000 2.000000E+001
         vertex 3.882286E-001 -1.448889E+000 0.000000E+000
      endloop
   endfacet
   facet normal 3.826834E-001 -9.238795E-001 0.000000E+000
      outer loop
         vertex 3.882286E-001 -1.448889E+000 0.000000E+000
         vertex 7.500000E-001 -1.299038E+000 0.000000E+000
         vertex 7.500000E-001 -1.299038E+000 2.000000E+001
      endloop
   endfacet
   facet normal 6.087614E-001 -7.933533E-001 0.000000E+000
      outer loop
         vertex 1.060660E+000 -1.060660E+000 2.000000E+001
         vertex 7.500000E-001 -1.299038E+000 2.000000E+001
         vertex 7.500000E-001 -1.299038E+000 0.000000E+000
      endloop
   endfacet
   facet normal 6.087614E-001 -7.933533E-001 0.000000E+000
      outer loop
         vertex 7.500000E-001 -1.299038E+000 0.000000E+000
         vertex 1.060660E+000 -1.060660E+000 0.000000E+000
         vertex 1.060660E+000 -1.060660E+000 2.000000E+001
      endloop
   endfacet
   facet normal 7.933533E-001 -6.087614E-001 0.000000E+000
      outer loop
         vertex 1.299038E+000 -7.500000E-001 2.000000E+001
         vertex 1.060660E+000 -1.060660E+000 2.000000E+001
         vertex 1.060660E+000 -1.060660E+000 0.000000E+000
      endloop
   endfacet
   facet normal 7.933533E-001 -6.087614E-001 0.000000E+000
      outer loop
         vertex 1.060660E+000 -1.060660E+000 0.000000E+000
         vertex 1.299038E+000 -7.500000E-001 0.000000E+000
         vertex 1.299038E+000 -7.500000E-001 2.000000E+001
      endloop
   endfacet
   facet normal 9.238795E-001 -3.826834E-001 0.000000E+000
      outer loop
         vertex 1.448889E+000 -3.882286E-001 2.000000E+001
         vertex 1.299038E+000 -7.500000E-001 2.000000E+001
         vertex 1.299038E+000 -7.500000E-001 0.000000E+000
      endloop
   endfacet
   facet normal 9.238795E-001 -3.826834E-001 0.000000E+000
      outer loop
         vertex 1.299038E+000 -7.500000E-001 0.000000E+000
         vertex 1.448889E+000 -3.882286E-001 0.000000E+000
         vertex 1.448889E+000 -3.882286E-001 2.000000E+001
      endloop
   endfacet
   facet normal 9.914449E-001 -1.305262E-001 0.000000E+000
      outer loop
         vertex 1.500000E+000 -3.673819E-016 2.000000E+001
         vertex 1.448889E+000 -3.882286E-001 2.000000E+001
         vertex 1.448889E+000 -3.882286E-001 0.000000E+000
      endloop
   endfacet
   facet normal 9.914449E-001 -1.305262E-001 0.000000E+000
      outer loop
         vertex 1.448889E+000 -3.882286E-001 0.000000E+000
         vertex 1.500000E+000 -3.673819E-016 0.000000E+000
         vertex 1.500000E+000 -3.673819E-016 2.000000E+001
      endloop
   endfacet
endsolid
