<svg id="Layer_1" data-name="Layer 1" xmlns="http://www.w3.org/2000/svg" viewBox="0 0 146.99 33.38"><defs><style>.cls-1,.cls-2{fill:#d50000;}.cls-2{fill-rule:evenodd;}</style></defs><path class="cls-1" d="M385.81,303.22l3.7,6.45h-3.24l-3-5.91h-2.56v5.91H378v-15h5.31c3.52,0,5.22,1.42,5.22,4.5C388.51,301.36,387.55,302.8,385.81,303.22Zm-2.5-6.2h-2.56v4.6h2.48c1.7,0,2.42-.56,2.42-2.36S385,297,383.31,297Z" transform="translate(-345.8 -276.57)"/><path class="cls-1" d="M395.75,310c-3.72,0-5.4-1.8-5.4-6.27s1.68-6.28,5.4-6.28,5.34,1.84,5.34,6.28S399.49,310,395.75,310Zm0-2.14c2,0,2.72-1,2.72-4.13s-.74-4.12-2.72-4.12-2.76,1-2.76,4.12S393.77,307.81,395.75,307.81Z" transform="translate(-345.8 -276.57)"/><path class="cls-1" d="M408.91,309.91a4.58,4.58,0,0,1-3.36-1.34l-.36,1.1h-1.72V294l2.54-.14V297l0,1.6.06,0a4.47,4.47,0,0,1,3.18-1.2c2.78,0,4.54,1.72,4.54,6.2S412,309.91,408.91,309.91Zm-.42-10.21a2.93,2.93,0,0,0-2.48,1.18v5.7a2.86,2.86,0,0,0,2.5,1.23c1.62,0,2.64-.76,2.64-4.15S410.19,299.7,408.49,299.7Z" transform="translate(-345.8 -276.57)"/><path class="cls-1" d="M420.81,310c-3.72,0-5.41-1.8-5.41-6.27s1.69-6.28,5.41-6.28,5.34,1.84,5.34,6.28S424.55,310,420.81,310Zm0-2.14c2,0,2.72-1,2.72-4.13s-.74-4.12-2.72-4.12-2.76,1-2.76,4.12S418.83,307.81,420.81,307.81Z" transform="translate(-345.8 -276.57)"/><path class="cls-1" d="M437,297.62l1.88,8.42.32,1.59h.06l.26-1.6,1.62-8.41h2.48l-2.78,12.05h-3.16L436,301.9l-.3-1.6h-.06l-.32,1.6-1.72,7.77h-3.12l-3-12.05h2.56l1.69,8.38.3,1.59h.06l.3-1.59,1.84-8.38Z" transform="translate(-345.8 -276.57)"/><path class="cls-1" d="M447.53,296c-1,0-1.53-.3-1.53-1.18s.5-1.22,1.53-1.22,1.51.44,1.51,1.22S448.57,296,447.53,296Zm-1.31,13.65v-12l2.59-.14v12.11Z" transform="translate(-345.8 -276.57)"/><path class="cls-1" d="M455.6,306.2l-1,1.25,0,.06h5.91l-.08,2.16h-8.81v-1.82l4.84-6.75,1-1.26,0,0h-5.6l.1-2.18h8.47v1.82Z" transform="translate(-345.8 -276.57)"/><path class="cls-1" d="M469.51,308.39l-.06,0a4.24,4.24,0,0,1-3.41,1.5c-2.24,0-3.72-1.24-3.72-3.92,0-2.27,1.52-3.73,4.33-3.73a8.32,8.32,0,0,1,2.5.38v-.9c0-1.5-.72-2.1-2.52-2.1a7.65,7.65,0,0,0-3.34.68l-.23-2.1a9.92,9.92,0,0,1,4-.78c3.36,0,4.58,1.44,4.58,4.68v7.59h-1.94Zm-.36-4a5.35,5.35,0,0,0-2-.34c-1.65,0-2.39.66-2.39,1.88,0,1.41.85,1.91,2,1.91s2.4-.8,2.4-1.69Z" transform="translate(-345.8 -276.57)"/><path class="cls-1" d="M474.38,309.67v-12l2-.12.22,2.26h.06a3.78,3.78,0,0,1,3.47-2.4,4.27,4.27,0,0,1,1.25.16l-.15,2.58A4.33,4.33,0,0,0,480,300c-1.74,0-3.08,1.36-3.08,3.62v6.07Z" transform="translate(-345.8 -276.57)"/><path class="cls-1" d="M490.81,309.67l-.28-1.14-.06,0a4.07,4.07,0,0,1-3.36,1.4c-3.17,0-4.63-2-4.63-6.31,0-4,1.48-6.2,4.6-6.2a4.47,4.47,0,0,1,3.17,1.22l0,0,0-1.6v-3l2.54-.14v15.81Zm-.56-8.83a2.84,2.84,0,0,0-2.42-1.1c-2,0-2.7,1-2.7,4s.63,4.08,2.68,4.08a2.62,2.62,0,0,0,2.44-1.2Z" transform="translate(-345.8 -276.57)"/><path class="cls-2" d="M366.9,294l0,0-6.56,3.78a3,3,0,0,1-.25,2.4l3.24,5.52h2.1v2h6.1v2h-23v-2h5.69v-2h3.5v-1.38l-1.76-3-.06,0a3,3,0,0,1-1.12-4.1,3.07,3.07,0,0,1,3.89-1.24l6.81-3.93a2.93,2.93,0,0,1,.13-1.63l-11.89-6.75-.71,1.24-3.47-2L352,278.5l3.46,2-.78,1.36,12.2,6.93a3.12,3.12,0,0,1,3.06,0,3,3,0,0,1,1.12,4.11,3.08,3.08,0,0,1-4.17,1.1Zm-9.55,3a1.68,1.68,0,1,0,1.68,1.68,1.68,1.68,0,0,0-1.68-1.68Zm11.18-7.14a1.57,1.57,0,1,0,1.57,1.56,1.56,1.56,0,0,0-1.57-1.56ZM345.8,280l2-3.47,3.1,1.78-2,3.46L345.8,280Z" transform="translate(-345.8 -276.57)"/></svg>